<svg width="36" height="36" viewBox="0 0 36 36" fill="none" xmlns="http://www.w3.org/2000/svg">
<path d="M23.5062 16.6001C21.7 16.6001 21.45 18.4001 21.45 18.4001H25.2875C25.2875 18.4001 25.3125 16.6001 23.5062 16.6001Z" fill="#EDF7FA"/>
<path d="M14.7999 18.3999H11.3999V21.5249H14.6312C15.1187 21.5124 16.0312 21.3749 16.0312 20.0062C16.0312 18.3812 14.7999 18.3999 14.7999 18.3999Z" fill="#EDF7FA"/>
<path d="M18 4C10.2688 4 4 10.2688 4 18C4 25.7313 10.2688 32 18 32C25.7313 32 32 25.7313 32 18C32 10.2688 25.7313 4 18 4ZM20.95 12.6H25.7687V14.0375H20.95V12.6ZM18.5125 20.15C18.5125 23.7125 14.8 23.6 14.8 23.6H8.725V11.9125H14.8C16.65 11.9125 18.1063 12.9312 18.1063 15.025C18.1063 17.1187 16.325 17.25 16.325 17.25C18.675 17.25 18.5125 20.15 18.5125 20.15ZM27.525 19.9562H21.4688C21.4688 22.125 23.525 21.9875 23.525 21.9875C25.4688 21.9875 25.4 20.7313 25.4 20.7313H27.4562C27.4562 24.0688 23.4562 23.8375 23.4562 23.8375C18.6625 23.8375 18.9688 19.3687 18.9688 19.3687C18.9688 19.3687 18.9625 14.8813 23.4562 14.8813C28.1875 14.8875 27.525 19.9562 27.525 19.9562Z" fill="#EDF7FA"/>
<path d="M15.6249 15.2062C15.6249 13.9937 14.7999 13.9937 14.7999 13.9937H11.3999V16.5999H14.5874C15.1374 16.5999 15.6249 16.4187 15.6249 15.2062Z" fill="#EDF7FA"/>
</svg>
