<svg width="36" height="36" viewBox="0 0 36 36" fill="none" xmlns="http://www.w3.org/2000/svg">
<path d="M11.5487 5.57178C9.60572 6.58145 7.92636 8.03234 6.64527 9.80811C5.36417 11.5839 4.51698 13.6351 4.17163 15.7974H4.98363C10.2196 15.676 14.3244 15.2224 17.6769 14.1958C16.221 11.6142 14.4439 9.08111 12.3122 6.50511L12.3103 6.50324L11.5487 5.57178Z" fill="#EDF7FA"/>
<path d="M4.00373 17.664L4 18C4 21.765 5.48587 25.1829 7.9032 27.6992L8.20373 27.0944C8.22043 27.0609 8.23913 27.0285 8.25973 26.9973C11.3547 22.2896 14.8565 19.4896 18.7728 18.2333C19.0378 18.1474 19.3066 18.069 19.5754 17.9981C19.2619 17.2793 18.9276 16.5696 18.5731 15.8701C14.9051 17.0517 10.496 17.537 5.01547 17.6621H4.0056L4.00373 17.664Z" fill="#EDF7FA"/>
<path d="M9.33862 29.0002C11.8051 30.9478 14.8572 32.0049 17.9999 31.9999C19.6669 31.9999 21.2666 31.7087 22.7469 31.1749V29.8309C22.2914 26.2189 21.4906 22.9055 20.2866 19.7434C19.9693 19.8218 19.6538 19.9114 19.3421 20.0103C15.941 21.1023 12.7621 23.5626 9.85009 27.9773L9.34049 29.0002H9.33862Z" fill="#EDF7FA"/>
<path d="M24.6135 30.3423C26.418 29.374 27.9884 28.0223 29.2145 26.3821C30.4406 24.742 31.2926 22.8531 31.7106 20.8484L30.6559 20.3724C27.6207 19.4802 24.7927 19.1143 22.157 19.4111C23.3479 22.6218 24.1487 25.993 24.606 29.6554C24.6116 29.6927 24.6135 29.73 24.6135 29.7711V30.3423Z" fill="#EDF7FA"/>
<path d="M31.9702 18.9185C32.2166 15.2518 31.0058 11.636 28.6009 8.85718L28.0465 9.47131C25.8625 12.1276 23.3686 13.97 20.3372 15.2244C20.7329 16.0158 21.1025 16.8129 21.4441 17.6212C24.5652 17.1732 27.8467 17.595 31.2459 18.6012C31.2874 18.6133 31.3279 18.6282 31.3673 18.646L31.9702 18.9185Z" fill="#EDF7FA"/>
<path d="M27.2884 7.52428C24.7297 5.2493 21.4237 3.99491 17.9999 4.00002C16.361 4.00002 14.7892 4.28002 13.3276 4.79895L13.7532 5.31788C16.0306 8.06748 17.9196 10.7853 19.4615 13.5648C22.3418 12.4019 24.6247 10.7013 26.6183 8.26908C26.6273 8.25765 26.6367 8.24645 26.6463 8.23548L27.2884 7.52614V7.52428Z" fill="#EDF7FA"/>
</svg>
