<svg width="167" height="52" viewBox="0 0 167 52" fill="none" xmlns="http://www.w3.org/2000/svg">
<mask id="mask0_3147_139" style="mask-type:alpha" maskUnits="userSpaceOnUse" x="6" y="5" width="40" height="42">
<path d="M21 6.78592C24.094 4.99959 27.906 4.99959 31 6.78592L40.0526 12.0124C43.1466 13.7987 45.0526 17.1 45.0526 20.6727V31.1257C45.0526 34.6983 43.1466 37.9996 40.0526 39.7859L31 45.0124C27.906 46.7987 24.094 46.7987 21 45.0124L11.9474 39.7859C8.85343 37.9996 6.94744 34.6983 6.94744 31.1257V20.6727C6.94744 17.1 8.85343 13.7987 11.9474 12.0124L21 6.78592Z" fill="#C4C4C4"/>
</mask>
<g mask="url(#mask0_3147_139)">
<path d="M21 6.78592C24.094 4.99959 27.906 4.99959 31 6.78592L40.0526 12.0124C43.1466 13.7987 45.0526 17.1 45.0526 20.6727V31.1257C45.0526 34.6983 43.1466 37.9996 40.0526 39.7859L31 45.0124C27.906 46.7987 24.094 46.7987 21 45.0124L11.9474 39.7859C8.85343 37.9996 6.94744 34.6983 6.94744 31.1257V20.6727C6.94744 17.1 8.85343 13.7987 11.9474 12.0124L21 6.78592Z" fill="#EA1D5D"/>
<path d="M18.5 17.1172C17.6716 17.1172 17 17.7887 17 18.6172V26.0189C17 26.0278 17 26.0367 17.0001 26.0455C17.0091 27.8252 17.5455 29.5622 18.5416 31.0371C19.5376 32.5119 20.9485 33.6583 22.596 34.3314C24.2434 35.0045 26.0534 35.1741 27.7972 34.8187C29.5412 34.4634 31.1405 33.599 32.393 32.3348C33.6457 31.0707 34.4955 29.4635 34.8349 27.7165C35.1743 25.9695 34.9882 24.161 34.2999 22.5198C33.6118 20.8785 32.4525 19.4782 30.9685 18.4958C29.4846 17.5133 27.7428 16.9928 25.9632 17.0001C25.7658 17.0009 25.5706 17.0407 25.3885 17.1172C25.2065 17.1935 25.0414 17.305 24.9024 17.4453C24.7635 17.5854 24.6536 17.7516 24.5789 17.9343C24.5042 18.117 24.4663 18.3126 24.4671 18.5101C24.4681 18.7074 24.5078 18.9027 24.5843 19.0846C24.6606 19.2666 24.7721 19.4318 24.9123 19.5708C25.0525 19.7097 25.2187 19.8196 25.4014 19.8943C25.5841 19.9689 25.7798 20.0069 25.9771 20.006C27.1634 20.0007 28.3248 20.3472 29.3141 21.0019C30.3035 21.6565 31.0764 22.5899 31.5354 23.6839C31.9943 24.7778 32.1187 25.9833 31.8924 27.148C31.6663 28.3125 31.0999 29.3838 30.265 30.2266C29.4299 31.0693 28.3637 31.6455 27.2013 31.8822C26.0388 32.119 24.8322 32.0058 23.7341 31.5569C22.636 31.1081 21.6956 30.3436 21.0319 29.3603C20.3683 28.377 20.0112 27.2184 20.0056 26.032C20.0057 25.9873 20.0039 25.9427 20 25.8984V18.6172C20 17.7887 19.3285 17.1172 18.5 17.1172Z" fill="white"/>
<path d="M27.8851 24.4323C28.8387 25.3858 28.8387 26.9318 27.8851 27.8854C26.9316 28.8389 25.3856 28.8389 24.432 27.8854C23.4784 26.9318 23.4784 25.3858 24.432 24.4323C25.3856 23.4787 26.9316 23.4787 27.8851 24.4323Z" fill="white"/>
<path d="M18.5 17.1172C17.6716 17.1172 17 17.7887 17 18.6172V26.0189C17 26.0278 17 26.0367 17.0001 26.0455C17.0091 27.8252 17.5455 29.5622 18.5416 31.0371C19.5376 32.5119 20.9485 33.6583 22.596 34.3314C24.2434 35.0045 26.0534 35.1741 27.7972 34.8187C29.5412 34.4634 31.1405 33.599 32.393 32.3348C33.6457 31.0707 34.4955 29.4635 34.8349 27.7165C35.1743 25.9695 34.9882 24.161 34.2999 22.5198C33.6118 20.8785 32.4525 19.4782 30.9685 18.4958C29.4846 17.5133 27.7428 16.9928 25.9632 17.0001C25.7658 17.0009 25.5706 17.0407 25.3885 17.1172C25.2065 17.1935 25.0414 17.305 24.9024 17.4453C24.7635 17.5854 24.6536 17.7516 24.5789 17.9343C24.5042 18.117 24.4663 18.3126 24.4671 18.5101C24.4681 18.7074 24.5078 18.9027 24.5843 19.0846C24.6606 19.2666 24.7721 19.4318 24.9123 19.5708C25.0525 19.7097 25.2187 19.8196 25.4014 19.8943C25.5841 19.9689 25.7798 20.0069 25.9771 20.006C27.1634 20.0007 28.3248 20.3472 29.3141 21.0019C30.3035 21.6565 31.0764 22.5899 31.5354 23.6839C31.9943 24.7778 32.1187 25.9833 31.8924 27.148C31.6663 28.3125 31.0999 29.3838 30.265 30.2266C29.4299 31.0693 28.3637 31.6455 27.2013 31.8822C26.0388 32.119 24.8322 32.0058 23.7341 31.5569C22.636 31.1081 21.6956 30.3436 21.0319 29.3603C20.3683 28.377 20.0112 27.2184 20.0056 26.032C20.0057 25.9873 20.0039 25.9427 20 25.8984V18.6172C20 17.7887 19.3285 17.1172 18.5 17.1172Z" stroke="white" stroke-width="0.8"/>
<path d="M27.8851 24.4323C28.8387 25.3858 28.8387 26.9318 27.8851 27.8854C26.9316 28.8389 25.3856 28.8389 24.432 27.8854C23.4784 26.9318 23.4784 25.3858 24.432 24.4323C25.3856 23.4787 26.9316 23.4787 27.8851 24.4323Z" stroke="white" stroke-width="0.8"/>
</g>
<path d="M59.6055 13.5V31L59.1816 34.5H55.4766V13.5H59.6055ZM68.9023 27.2266C68.9023 28.7031 68.6927 30.0111 68.2734 31.1504C67.8542 32.2897 67.2207 33.1784 66.373 33.8164C65.5254 34.4544 64.4544 34.7734 63.1602 34.7734C61.9388 34.7734 60.9408 34.4453 60.166 33.7891C59.4004 33.1237 58.8034 32.2259 58.375 31.0957C57.9466 29.9564 57.6413 28.6758 57.459 27.2539V26.9258C57.6413 25.513 57.9421 24.2415 58.3613 23.1113C58.7897 21.9811 59.3867 21.0879 60.1523 20.4316C60.9271 19.7663 61.9206 19.4336 63.1328 19.4336C64.4362 19.4336 65.5117 19.7572 66.3594 20.4043C67.2161 21.0514 67.8542 21.9401 68.2734 23.0703C68.6927 24.2005 68.9023 25.4902 68.9023 26.9395V27.2266ZM64.7734 26.9395C64.7734 26.1921 64.7005 25.5039 64.5547 24.875C64.4089 24.237 64.14 23.7311 63.748 23.3574C63.3652 22.9746 62.8092 22.7832 62.0801 22.7832C61.5697 22.7832 61.1322 22.8652 60.7676 23.0293C60.403 23.1934 60.1022 23.4349 59.8652 23.7539C59.6374 24.0638 59.4642 24.4421 59.3457 24.8887C59.2363 25.3353 59.1771 25.832 59.168 26.3789V27.8145C59.1862 28.5436 59.2956 29.1816 59.4961 29.7285C59.6966 30.2663 60.0065 30.6855 60.4258 30.9863C60.8542 31.2871 61.4147 31.4375 62.1074 31.4375C62.8366 31.4375 63.3926 31.2598 63.7754 30.9043C64.1582 30.5397 64.418 30.043 64.5547 29.4141C64.7005 28.776 64.7734 28.0469 64.7734 27.2266V26.9395ZM75.3828 34.5H71.2539V19.707H75.1367L75.3828 23.1113V34.5ZM79.7031 23.5898C79.5026 23.5625 79.2656 23.5397 78.9922 23.5215C78.7188 23.4941 78.4727 23.4805 78.2539 23.4805C77.5339 23.4805 76.9414 23.5944 76.4766 23.8223C76.0117 24.041 75.6654 24.3691 75.4375 24.8066C75.2096 25.2441 75.0866 25.7865 75.0684 26.4336L74.2617 26.0781C74.2617 24.793 74.4258 23.6491 74.7539 22.6465C75.082 21.6439 75.5651 20.86 76.2031 20.2949C76.8411 19.7207 77.6159 19.4336 78.5273 19.4336C78.737 19.4336 78.9557 19.4473 79.1836 19.4746C79.4206 19.502 79.612 19.5475 79.7578 19.6113L79.7031 23.5898ZM89.3965 24.6426C89.3965 23.9772 89.2324 23.4486 88.9043 23.0566C88.5762 22.6647 88.0521 22.4688 87.332 22.4688C86.9219 22.4688 86.5664 22.5371 86.2656 22.6738C85.9648 22.8105 85.737 23.0065 85.582 23.2617C85.4271 23.5078 85.3496 23.8132 85.3496 24.1777H81.2207C81.2207 23.3027 81.4805 22.5098 82 21.7988C82.5195 21.0788 83.2533 20.5046 84.2012 20.0762C85.1491 19.6478 86.2656 19.4336 87.5508 19.4336C88.6992 19.4336 89.7246 19.6296 90.627 20.0215C91.5293 20.4043 92.2402 20.9831 92.7598 21.7578C93.2793 22.5326 93.5391 23.5033 93.5391 24.6699V30.8496C93.5391 31.7246 93.5892 32.4173 93.6895 32.9277C93.7988 33.4382 93.9492 33.8848 94.1406 34.2676V34.5H89.9844C89.7839 34.0807 89.6335 33.5566 89.5332 32.9277C89.4421 32.2988 89.3965 31.6608 89.3965 31.0137V24.6426ZM89.957 27.8281H87.8516C86.849 27.8281 86.1243 28.0469 85.6777 28.4844C85.2311 28.9128 85.0078 29.4323 85.0078 30.043C85.0078 30.5078 85.1719 30.8906 85.5 31.1914C85.8281 31.4922 86.2702 31.6426 86.8262 31.6426C87.4004 31.6426 87.8926 31.5332 88.3027 31.3145C88.722 31.0866 89.041 30.8177 89.2598 30.5078C89.4876 30.1888 89.597 29.8971 89.5879 29.6328L90.6543 31.4102C90.5085 31.7747 90.3125 32.153 90.0664 32.5449C89.8294 32.9368 89.5241 33.3014 89.1504 33.6387C88.7767 33.9759 88.321 34.2493 87.7832 34.459C87.2546 34.6686 86.6302 34.7734 85.9102 34.7734C84.9805 34.7734 84.1328 34.5866 83.3672 34.2129C82.6016 33.8301 81.9954 33.306 81.5488 32.6406C81.1022 31.9661 80.8789 31.196 80.8789 30.3301C80.8789 28.7806 81.4531 27.582 82.6016 26.7344C83.75 25.8776 85.459 25.4492 87.7285 25.4492H89.9297L89.957 27.8281ZM100.525 34.5H96.3965V19.707H100.279L100.525 22.8652V34.5ZM98.8301 26.666C98.8301 25.1712 99.0716 23.8861 99.5547 22.8105C100.038 21.7259 100.717 20.8919 101.592 20.3086C102.467 19.7253 103.483 19.4336 104.641 19.4336C105.57 19.4336 106.382 19.6159 107.074 19.9805C107.776 20.3451 108.323 20.9421 108.715 21.7715C109.116 22.5918 109.316 23.7083 109.316 25.1211V34.5H105.174V25.0938C105.174 24.4831 105.083 24.0137 104.9 23.6855C104.727 23.3483 104.472 23.1159 104.135 22.9883C103.798 22.8516 103.383 22.7832 102.891 22.7832C102.389 22.7832 101.952 22.8789 101.578 23.0703C101.214 23.2526 100.908 23.5169 100.662 23.8633C100.425 24.2096 100.247 24.6198 100.129 25.0938C100.01 25.5586 99.9512 26.0645 99.9512 26.6113L98.8301 26.666ZM120.883 13.5H125.039V34.5H121.307L120.883 31.2051V13.5ZM111.6 26.9941C111.6 25.4902 111.823 24.1732 112.27 23.043C112.725 21.9036 113.382 21.0195 114.238 20.3906C115.104 19.7526 116.157 19.4336 117.396 19.4336C118.554 19.4336 119.52 19.7663 120.295 20.4316C121.079 21.0879 121.694 21.9902 122.141 23.1387C122.596 24.278 122.911 25.5723 123.084 27.0215V27.3633C122.911 28.7396 122.596 29.9883 122.141 31.1094C121.694 32.2305 121.079 33.1237 120.295 33.7891C119.52 34.4453 118.545 34.7734 117.369 34.7734C116.148 34.7734 115.104 34.4499 114.238 33.8027C113.382 33.1465 112.725 32.2533 112.27 31.123C111.823 29.9928 111.6 28.7122 111.6 27.2812V26.9941ZM115.729 27.2812C115.729 28.0469 115.815 28.7441 115.988 29.373C116.161 30.002 116.444 30.5033 116.836 30.877C117.228 31.2415 117.757 31.4238 118.422 31.4238C119.078 31.4238 119.616 31.278 120.035 30.9863C120.454 30.6855 120.773 30.2708 120.992 29.7422C121.211 29.2135 121.339 28.6029 121.375 27.9102V26.4883C121.357 25.8958 121.279 25.3717 121.143 24.916C121.015 24.4512 120.833 24.0638 120.596 23.7539C120.368 23.4349 120.072 23.1934 119.707 23.0293C119.352 22.8652 118.932 22.7832 118.449 22.7832C117.793 22.7832 117.264 22.9701 116.863 23.3438C116.462 23.7083 116.171 24.2096 115.988 24.8477C115.815 25.4766 115.729 26.1921 115.729 26.9941V27.2812ZM128.512 33.1738C128.512 32.7454 128.644 32.3854 128.908 32.0938C129.182 31.793 129.574 31.6426 130.084 31.6426C130.604 31.6426 130.995 31.793 131.26 32.0938C131.533 32.3854 131.67 32.7454 131.67 33.1738C131.67 33.5931 131.533 33.944 131.26 34.2266C130.995 34.5091 130.604 34.6504 130.084 34.6504C129.574 34.6504 129.182 34.5091 128.908 34.2266C128.644 33.944 128.512 33.5931 128.512 33.1738ZM141.801 32.7227C142.402 32.7227 142.958 32.5996 143.469 32.3535C143.979 32.0983 144.398 31.752 144.727 31.3145C145.055 30.877 145.242 30.3802 145.287 29.8242H147.707C147.661 30.6992 147.365 31.515 146.818 32.2715C146.271 33.0189 145.561 33.625 144.686 34.0898C143.811 34.5456 142.849 34.7734 141.801 34.7734C140.315 34.7734 139.085 34.4362 138.109 33.7617C137.134 33.0781 136.405 32.1758 135.922 31.0547C135.448 29.9336 135.211 28.7122 135.211 27.3906V26.8164C135.211 25.4857 135.452 24.2643 135.936 23.1523C136.419 22.0312 137.148 21.1335 138.123 20.459C139.098 19.7754 140.324 19.4336 141.801 19.4336C142.958 19.4336 143.97 19.6706 144.836 20.1445C145.711 20.6094 146.395 21.2474 146.887 22.0586C147.388 22.8607 147.661 23.7721 147.707 24.793H145.287C145.242 24.1823 145.068 23.6263 144.768 23.125C144.476 22.6237 144.075 22.2272 143.564 21.9355C143.063 21.6348 142.475 21.4844 141.801 21.4844C140.771 21.4844 139.96 21.7487 139.367 22.2773C138.784 22.806 138.369 23.4805 138.123 24.3008C137.886 25.112 137.768 25.9505 137.768 26.8164V27.3906C137.768 28.2565 137.886 29.0996 138.123 29.9199C138.36 30.7402 138.77 31.4147 139.354 31.9434C139.946 32.4629 140.762 32.7227 141.801 32.7227ZM149.895 26.9531C149.895 25.5221 150.168 24.2415 150.715 23.1113C151.262 21.9811 152.036 21.0879 153.039 20.4316C154.042 19.7663 155.231 19.4336 156.607 19.4336C158.002 19.4336 159.205 19.7663 160.217 20.4316C161.229 21.0879 162.003 21.9811 162.541 23.1113C163.088 24.2415 163.361 25.5221 163.361 26.9531V27.2676C163.361 28.6895 163.088 29.9701 162.541 31.1094C162.003 32.2396 161.229 33.1328 160.217 33.7891C159.214 34.4453 158.02 34.7734 156.635 34.7734C155.249 34.7734 154.051 34.4453 153.039 33.7891C152.036 33.1328 151.262 32.2396 150.715 31.1094C150.168 29.9701 149.895 28.6895 149.895 27.2676V26.9531ZM152.451 27.2676C152.451 28.2428 152.606 29.1452 152.916 29.9746C153.226 30.804 153.686 31.4694 154.297 31.9707C154.917 32.472 155.696 32.7227 156.635 32.7227C157.564 32.7227 158.335 32.472 158.945 31.9707C159.565 31.4694 160.03 30.804 160.34 29.9746C160.65 29.1452 160.805 28.2428 160.805 27.2676V26.9531C160.805 25.9779 160.65 25.0755 160.34 24.2461C160.03 23.4167 159.565 22.7513 158.945 22.25C158.326 21.7396 157.546 21.4844 156.607 21.4844C155.687 21.4844 154.917 21.7396 154.297 22.25C153.677 22.7513 153.212 23.4167 152.902 24.2461C152.602 25.0755 152.451 25.9779 152.451 26.9531V27.2676Z" fill="white"/>
</svg>
